<svg width="512" height="512" viewBox="0 0 512 512" fill="none" xmlns="http://www.w3.org/2000/svg">
  <rect width="512" height="512" rx="100" fill="#111827"/>
  <path d="M256 128C185.307 128 128 185.307 128 256C128 326.693 185.307 384 256 384C326.693 384 384 326.693 384 256C384 185.307 326.693 128 256 128ZM230.4 320V192L307.2 256L230.4 320Z" fill="#EC4899"/>
  <path d="M128 96H384C397.255 96 408 106.745 408 120V136C408 149.255 397.255 160 384 160H128C114.745 160 104 149.255 104 136V120C104 106.745 114.745 96 128 96Z" fill="#EC4899"/>
  <path d="M128 352H384C397.255 352 408 362.745 408 376V392C408 405.255 397.255 416 384 416H128C114.745 416 104 405.255 104 392V376C104 362.745 114.745 352 128 352Z" fill="#EC4899"/>
</svg>
